Coordinates
version=1
nRows=21
nColumns=19
inDegrees=yes

Units are S.I. units (second, meters, Newtons, ...)
Angles are in degrees.

endheader
time	pelvis_tilt	pelvis_list	pelvis_rotation	pelvis_tx	pelvis_ty	pelvis_tz	hip_flexion_r	hip_adduction_r	hip_rotation_r	knee_angle_r	ankle_angle_r	subtalar_angle_r	hip_flexion_l	hip_adduction_l	hip_rotation_l	knee_angle_l	ankle_angle_l	subtalar_angle_l
      0.00000000	      7.49325310	     -2.34732071	     -3.04298299	      0.61422936	      1.01929113	      0.03682904	    -25.02735732	      1.53590985	      6.51698006	     -6.68285195	     11.48563559	      0.00000069	     15.74396865	     -4.00429573	     -5.13748113	     -3.25700985	     -2.62081676	     -0.00000173
      0.01666667	      6.98925189	     -2.04840502	     -3.25101146	      0.61506382	      1.01817803	      0.03461923	    -24.72110695	      1.01890618	      6.70738188	     -8.51126350	     11.63761443	      0.00000121	     16.54927562	     -3.51185235	     -4.93821492	     -5.44582958	     -4.19173561	     -0.00000198
      0.03333333	      6.62579146	     -1.71840277	     -3.22671891	      0.61672406	      1.01732168	      0.03173753	    -24.62142184	      0.53043302	      6.70910302	    -10.28597960	     11.47744370	      0.00000173	     17.09071166	     -2.90588144	     -4.73792982	     -7.51593214	     -5.63413989	     -0.00000215
      0.05000000	      6.33546084	     -1.44679521	     -3.47535036	      0.61853077	      1.01684323	      0.02942671	    -24.25978896	      0.04831386	      6.96903088	    -12.69174468	     11.17726609	      0.00000228	     17.51959493	     -2.52000064	     -4.79486866	     -9.71039779	     -6.63691911	     -0.00000218
      0.06666667	      6.49829211	     -1.20382542	     -3.49136736	      0.62115629	      1.01749343	      0.02722883	    -24.26179147	     -0.29629569	      6.93920379	    -15.32507759	     10.30848454	      0.00000279	     17.43457287	     -2.15702187	     -4.59635494	    -12.07059131	     -6.98773876	     -0.00000218
      0.08333333	      6.60964297	     -0.92853262	     -3.27658538	      0.62404347	      1.01868902	      0.02437239	    -23.78891479	     -0.56358913	      6.51154245	    -18.67553436	      9.01143648	      0.00000353	     17.05317300	     -1.68665582	     -4.20374561	    -13.84257072	     -7.08754262	     -0.00000253
      0.10000000	      6.89948914	     -0.59152826	     -3.23466157	      0.62700343	      1.02045165	      0.02143182	    -22.84587598	     -0.97510940	      5.93329180	    -23.06946316	      7.20829910	      0.00000453	     16.42491885	     -1.20703635	     -4.07903963	    -15.72565737	     -6.57203128	     -0.00000244
      0.11666667	      7.17687907	     -0.35724123	     -2.83208796	      0.62964646	      1.02276614	      0.01776959	    -21.41351456	     -1.24551750	      4.63134696	    -28.00369626	      4.42700830	      0.00000543	     15.55051534	     -0.71096127	     -3.66196328	    -17.07270441	     -5.90748529	     -0.00000229
      0.13333333	      7.19580862	     -0.05695976	     -2.77248249	      0.63164259	      1.02493246	      0.01466402	    -18.93047790	     -1.85229689	      3.16026260	    -33.82540398	      0.91959089	      0.00000623	     14.66268629	     -0.23765448	     -3.67046800	    -17.89255901	     -5.10676224	     -0.00000205
      0.15000000	      7.21225568	      0.29162725	     -2.75956837	      0.63282980	      1.02738946	      0.01102310	    -16.04372880	     -2.82190591	      1.33365472	    -39.72822302	     -3.24488031	      0.00000636	     13.46219213	      0.35512480	     -3.81779423	    -18.01395370	     -4.35393175	     -0.00000197
      0.16666667	      7.30879599	      0.68797624	     -2.40668027	      0.63418772	      1.03004776	      0.00725075	    -13.34150530	     -4.01055196	     -1.02368051	    -45.02239998	     -7.22565848	      0.00000532	     12.02873381	      1.09380081	     -3.64120495	    -17.83474034	     -3.52753383	     -0.00000185
      0.18333333	      7.37073845	      1.29975049	     -2.70339755	      0.63366550	      1.03252634	      0.00370518	    -10.24658428	     -5.79147137	     -2.69168316	    -50.32161854	     -9.73799299	      0.00000353	     10.45863936	      1.99269952	     -4.06616340	    -17.12399677	     -2.93361408	     -0.00000193
      0.20000000	      7.37210415	      1.75803593	     -2.70268741	      0.63320281	      1.03479806	      0.00004869	     -7.33047480	     -7.32565104	     -4.21952419	    -55.00509793	    -10.28247802	      0.00000056	      9.04516974	      2.78457249	     -4.08480520	    -16.60998033	     -2.18796121	     -0.00000190
      0.21666667	      7.29318040	      2.03670603	     -2.60091410	      0.63208915	      1.03695103	     -0.00365538	     -4.43899690	     -8.52011212	     -5.37593758	    -59.15728709	     -9.07274749	     -0.00000257	      7.72576143	      3.39046733	     -3.90990429	    -16.05237866	     -1.52243067	     -0.00000185
      0.23333333	      7.35851733	      2.03230888	     -2.10234106	      0.63185614	      1.03974940	     -0.00747265	     -2.15812463	     -9.17491217	     -6.56790565	    -62.28143997	     -6.97765755	     -0.00000541	      6.07589667	      3.72387900	     -3.29746045	    -15.28336737	     -0.89842413	     -0.00000177
      0.25000000	      7.51468139	      2.08072083	     -1.93277265	      0.63018134	      1.04241663	     -0.01015117	      0.23526676	     -9.64644147	     -7.01868259	    -64.97484357	     -4.66777766	     -0.00000743	      4.29934176	      4.01907924	     -3.00007737	    -14.26749640	     -0.46695831	     -0.00000188
      0.26666667	      7.38781689	      1.74654976	     -1.37997467	      0.62875055	      1.04459549	     -0.01317495	      2.62101370	     -9.53081557	     -7.69635611	    -66.69396521	     -2.82406899	     -0.00000844	      2.87863010	      3.89102948	     -2.33988704	    -13.38885991	      0.06945509	     -0.00000173
      0.28333333	      7.43385912	      1.45068574	     -0.83018316	      0.62680645	      1.04671542	     -0.01546628	      4.82693352	     -9.18117804	     -8.00354587	    -67.73476482	     -1.49967606	     -0.00000880	      1.32617465	      3.72542416	     -1.72649330	    -12.51915833	      0.54069665	     -0.00000153
      0.30000000	      7.43437841	      1.14604405	     -0.39183133	      0.62469758	      1.04848284	     -0.01766408	      7.00494009	     -8.66526868	     -8.00905614	    -68.00909905	     -0.66471381	     -0.00000796	     -0.25368101	      3.51781476	     -1.22453472	    -11.45008437	      0.88527392	     -0.00000140
      0.31666667	      7.24504578	      0.91365008	     -0.17076500	      0.62143188	      1.04931968	     -0.01888075	      9.48752073	     -7.93992351	     -7.45242610	    -67.73737759	     -0.08577323	     -0.00000654	     -1.49485085	      3.32294973	     -0.91944636	    -10.51520576	      1.24708318	     -0.00000120
      0.33333333	      7.15186558	      0.37713758	      0.45631134	      0.61904464	      1.05045600	     -0.02051940	     11.32910966	     -6.89962488	     -7.36774859	    -66.31741034	      0.26580397	     -0.00000428	     -2.86045551	      2.76653059	     -0.26486035	     -9.62188055	      1.66430333	     -0.00000075
